<?xml version="1.0" encoding="utf-8"?>
<!-- Generator: Adobe Illustrator 23.0.1, SVG Export Plug-In . SVG Version: 6.00 Build 0)  -->
<svg version="1.1" id="Layer_1" xmlns="http://www.w3.org/2000/svg" xmlns:xlink="http://www.w3.org/1999/xlink" x="0px" y="0px"
	 viewBox="0 0 200 200" style="enable-background:new 0 0 200 200;" xml:space="preserve">
<style type="text/css">
	.st0{fill-rule:evenodd;clip-rule:evenodd;fill:none;stroke:#FFFFFF;stroke-width:8;stroke-miterlimit:10;}
</style>
<path class="st0" d="M88.38,6.47C40.88,11.98,4,52.35,4,101.33c0,42.19,27.36,77.99,65.31,90.62c4.77,0.88,6.53-2.07,6.53-4.59
	c0-2.28-0.09-9.8-0.13-17.78c-26.57,5.78-32.17-11.27-32.17-11.27c-4.34-11.04-10.6-13.97-10.6-13.97
	c-8.67-5.93,0.65-5.81,0.65-5.81c9.59,0.67,14.64,9.84,14.64,9.84c8.52,14.6,22.34,10.38,27.79,7.94
	c0.86-6.17,3.33-10.39,6.06-12.77c-21.21-2.41-43.51-10.6-43.51-47.2c0-10.43,3.73-18.95,9.84-25.63
	c-0.99-2.41-4.26-12.12,0.93-25.27c0,0,8.02-2.57,26.27,9.79c7.62-2.12,15.79-3.18,23.9-3.21c8.12,0.04,16.29,1.1,23.92,3.21
	c18.23-12.36,26.24-9.79,26.24-9.79c5.2,13.16,1.93,22.87,0.94,25.27c6.12,6.69,9.83,15.21,9.83,25.63
	c0,36.68-22.34,44.76-43.61,47.12c3.43,2.96,6.48,8.78,6.48,17.68c0,12.78-0.11,23.06-0.11,26.21c0,2.54,1.72,5.52,6.56,4.58
	c37.93-12.64,65.25-48.43,65.25-90.61c0-52.75-42.76-95.5-95.5-95.5C95.74,5.83,92.03,6.05,88.38,6.47"/>
</svg>
