<svg xmlns="http://www.w3.org/2000/svg" xmlns:xlink="http://www.w3.org/1999/xlink" version="1.1" style="" xml:space="preserve" width="447.727" height="447.727"><rect id="backgroundrect" width="100%" height="100%" x="0" y="0" fill="none" stroke="none"/>
















<g class="currentLayer" style=""><title>Layer 1</title><g id="svg_1" class="selected" fill="#ffffff" fill-opacity="1">
	
		<linearGradient id="SVGID_1_" gradientUnits="userSpaceOnUse" x1="340.3479919433594" y1="311.84051513671875" x2="340.3479919433594" y2="132.57049560546875" gradientTransform="matrix(1 0 0 -1 0 450.0009)">
		<stop offset="0" style="stop-color:#DE9329"/>
		<stop offset="1" style="stop-color:#D64C1B"/>
	</linearGradient>
	<path style="" d="M447.601,263.733c-1.785-25.984-23.127-46.862-49.142-48.123   c-9.942-0.482-19.306,1.84-27.373,6.24c-1.075-51.745-43.328-93.368-95.33-93.368c-13.755,0-26.82,2.923-38.627,8.168   c-2.541,1.129-4.16,3.673-4.16,6.454v169.067c0,3.906,3.167,7.073,7.073,7.073h155.837   C425.725,319.243,449.681,294.024,447.601,263.733z" id="svg_2" fill="#ffffff" fill-opacity="1"/>
	
		<linearGradient id="SVGID_2_" gradientUnits="userSpaceOnUse" x1="219.1824951171875" y1="311.84051513671875" x2="219.1824951171875" y2="132.57049560546875" gradientTransform="matrix(1 0 0 -1 0 450.0009)">
		<stop offset="0" style="stop-color:#DE9329"/>
		<stop offset="1" style="stop-color:#D64C1B"/>
	</linearGradient>
	<path style="" d="M219.182,139.431c-3.933,0-7.12,3.188-7.12,7.12v165.387c0,3.933,3.188,7.12,7.12,7.12   c3.932,0,7.121-3.188,7.121-7.12V146.551C226.303,142.619,223.114,139.431,219.182,139.431z" id="svg_3" fill="#ffffff" fill-opacity="1"/>
	
		<linearGradient id="SVGID_3_" gradientUnits="userSpaceOnUse" x1="195.6199951171875" y1="311.84051513671875" x2="195.6199951171875" y2="132.57049560546875" gradientTransform="matrix(1 0 0 -1 0 450.0009)">
		<stop offset="0" style="stop-color:#DE9329"/>
		<stop offset="1" style="stop-color:#D64C1B"/>
	</linearGradient>
	<path style="" d="M195.62,157.019c-3.933,0-7.12,3.188-7.12,7.12v147.799c0,3.933,3.188,7.12,7.12,7.12   s7.12-3.188,7.12-7.12V164.139C202.74,160.207,199.552,157.019,195.62,157.019z" id="svg_4" fill="#ffffff" fill-opacity="1"/>
	
		<linearGradient id="SVGID_4_" gradientUnits="userSpaceOnUse" x1="172.0570068359375" y1="311.84051513671875" x2="172.0570068359375" y2="132.57049560546875" gradientTransform="matrix(1 0 0 -1 0 450.0009)">
		<stop offset="0" style="stop-color:#DE9329"/>
		<stop offset="1" style="stop-color:#D64C1B"/>
	</linearGradient>
	<path style="" d="M172.057,165.033c-3.933,0-7.12,3.188-7.12,7.12v139.785c0,3.933,3.188,7.12,7.12,7.12   c3.933,0,7.12-3.188,7.12-7.12V172.153C179.178,168.22,175.99,165.033,172.057,165.033z" id="svg_5" fill="#ffffff" fill-opacity="1"/>
	
		<linearGradient id="SVGID_5_" gradientUnits="userSpaceOnUse" x1="148.4949951171875" y1="311.84051513671875" x2="148.4949951171875" y2="132.57049560546875" gradientTransform="matrix(1 0 0 -1 0 450.0009)">
		<stop offset="0" style="stop-color:#DE9329"/>
		<stop offset="1" style="stop-color:#D64C1B"/>
	</linearGradient>
	<path style="" d="M148.495,154.348c-3.933,0-7.12,3.188-7.12,7.12v150.47c0,3.933,3.188,7.12,7.12,7.12   s7.12-3.188,7.12-7.12v-150.47C155.615,157.536,152.427,154.348,148.495,154.348z" id="svg_6" fill="#ffffff" fill-opacity="1"/>
	
		<linearGradient id="SVGID_6_" gradientUnits="userSpaceOnUse" x1="124.93199920654297" y1="311.84051513671875" x2="124.93199920654297" y2="132.57049560546875" gradientTransform="matrix(1 0 0 -1 0 450.0009)">
		<stop offset="0" style="stop-color:#DE9329"/>
		<stop offset="1" style="stop-color:#D64C1B"/>
	</linearGradient>
	<path style="" d="M124.932,161.471c-3.933,0-7.12,3.188-7.12,7.12v143.347c0,3.933,3.188,7.12,7.12,7.12   s7.12-3.188,7.12-7.12V168.591C132.052,164.659,128.865,161.471,124.932,161.471z" id="svg_7" fill="#ffffff" fill-opacity="1"/>
	
		<linearGradient id="SVGID_7_" gradientUnits="userSpaceOnUse" x1="101.37000274658203" y1="311.84051513671875" x2="101.37000274658203" y2="132.57049560546875" gradientTransform="matrix(1 0 0 -1 0 450.0009)">
		<stop offset="0" style="stop-color:#DE9329"/>
		<stop offset="1" style="stop-color:#D64C1B"/>
	</linearGradient>
	<path style="" d="M101.37,175.718c-3.933,0-7.12,3.188-7.12,7.12v129.1c0,3.933,3.188,7.12,7.12,7.12   s7.12-3.188,7.12-7.12v-129.1C108.491,178.905,105.303,175.718,101.37,175.718z" id="svg_8" fill="#ffffff" fill-opacity="1"/>
	
		<linearGradient id="SVGID_8_" gradientUnits="userSpaceOnUse" x1="77.80799865722656" y1="311.84051513671875" x2="77.80799865722656" y2="132.57049560546875" gradientTransform="matrix(1 0 0 -1 0 450.0009)">
		<stop offset="0" style="stop-color:#DE9329"/>
		<stop offset="1" style="stop-color:#D64C1B"/>
	</linearGradient>
	<path style="" d="M77.808,203.32c-3.933,0-7.12,3.188-7.12,7.12v101.498c0,3.933,3.188,7.12,7.12,7.12   c3.933,0,7.12-3.188,7.12-7.12V210.44C84.928,206.508,81.74,203.32,77.808,203.32z" id="svg_9" fill="#ffffff" fill-opacity="1"/>
	
		<linearGradient id="SVGID_9_" gradientUnits="userSpaceOnUse" x1="54.244998931884766" y1="311.84051513671875" x2="54.244998931884766" y2="132.57049560546875" gradientTransform="matrix(1 0 0 -1 0 450.0009)">
		<stop offset="0" style="stop-color:#DE9329"/>
		<stop offset="1" style="stop-color:#D64C1B"/>
	</linearGradient>
	<path style="" d="M54.245,214.895c-3.933,0-7.12,3.188-7.12,7.12v89.923c0,3.933,3.188,7.12,7.12,7.12   s7.12-3.188,7.12-7.12v-89.923C61.365,218.083,58.178,214.895,54.245,214.895z" id="svg_10" fill="#ffffff" fill-opacity="1"/>
	
		<linearGradient id="SVGID_10_" gradientUnits="userSpaceOnUse" x1="30.683000564575195" y1="311.84051513671875" x2="30.683000564575195" y2="132.57049560546875" gradientTransform="matrix(1 0 0 -1 0 450.0009)">
		<stop offset="0" style="stop-color:#DE9329"/>
		<stop offset="1" style="stop-color:#D64C1B"/>
	</linearGradient>
	<path style="" d="M30.683,217.551c-3.933,0-7.12,3.188-7.12,7.12v84.611c0,3.933,3.188,7.12,7.12,7.12   s7.12-3.188,7.12-7.12v-84.611C37.803,220.739,34.615,217.551,30.683,217.551z" id="svg_11" fill="#ffffff" fill-opacity="1"/>
	
		<linearGradient id="SVGID_11_" gradientUnits="userSpaceOnUse" x1="7.119999885559082" y1="311.84051513671875" x2="7.119999885559082" y2="132.57049560546875" gradientTransform="matrix(1 0 0 -1 0 450.0009)">
		<stop offset="0" style="stop-color:#DE9329"/>
		<stop offset="1" style="stop-color:#D64C1B"/>
	</linearGradient>
	<path style="" d="M7.12,236.143c-3.933,0-7.12,3.188-7.12,7.12v48.756c0,3.933,3.188,7.12,7.12,7.12   s7.12-3.188,7.12-7.12v-48.756C14.24,239.33,11.053,236.143,7.12,236.143z" id="svg_12" fill="#ffffff" fill-opacity="1"/>
</g><g id="svg_13">
</g><g id="svg_14">
</g><g id="svg_15">
</g><g id="svg_16">
</g><g id="svg_17">
</g><g id="svg_18">
</g><g id="svg_19">
</g><g id="svg_20">
</g><g id="svg_21">
</g><g id="svg_22">
</g><g id="svg_23">
</g><g id="svg_24">
</g><g id="svg_25">
</g><g id="svg_26">
</g><g id="svg_27">
</g></g></svg>